<?xml version="1.0" standalone="no"?>
<!DOCTYPE svg PUBLIC "-//W3C//DTD SVG 20010904//EN"
 "http://www.w3.org/TR/2001/REC-SVG-20010904/DTD/svg10.dtd">
<svg version="1.0" xmlns="http://www.w3.org/2000/svg"
 width="512.000000pt" height="512.000000pt" viewBox="0 0 512.000000 512.000000"
 preserveAspectRatio="xMidYMid meet">
<metadata>
Created by potrace 1.14, written by Peter Selinger 2001-2017
</metadata>
<g transform="translate(0.000000,512.000000) scale(0.100000,-0.100000)"
fill="#000000" stroke="none">
<path d="M2925 3826 c-88 -22 -148 -58 -221 -130 -75 -76 -113 -143 -133 -234
-33 -157 9 -308 121 -428 189 -202 501 -204 691 -5 188 197 181 494 -17 679
-122 114 -284 157 -441 118z"/>
<path d="M2020 3029 c-14 -5 -402 -386 -862 -847 l-838 -837 0 -305 c0 -351 7
-399 71 -530 81 -164 255 -298 434 -335 105 -22 3366 -22 3469 0 234 50 426
235 486 471 19 72 20 112 19 633 l0 556 -527 494 c-290 271 -538 499 -552 507
-30 16 -88 18 -127 4 -15 -6 -164 -147 -331 -313 l-302 -302 -398 397 c-218
218 -410 402 -425 408 -35 12 -83 12 -117 -1z"/>
</g>
</svg>
